<svg id="svg3336" viewBox="0 0 59.97 61.27" width="59.97" height="61.27" xmlns:svg="http://www.w3.org/2000/svg"
	 version="1.1" xmlns="http://www.w3.org/2000/svg">
	<metadata id="metadata3342"/>
	<defs id="defs3340"/>
	<path id="path3346"
		  d="M33.7 1.14L29.85 13.84C29.29 13.45 28.54 13.17 27.49 13.09L27.49 13.08C24.72 13.21 24.13 15.13 23.72 17.28L22.78 17.24 22.86 31.3 23.38 31.32 23.42 29.42C23.99 30.66 24.51 31.93 25.13 33.14L20.14 50.25 22.12 50.81 23.15 47.2 23.2 48.06 27.32 48.11 27.32 49.95 26.8 49.99 26.85 51.49 27.49 51.53 27.79 56.59 26.98 56.72 27.02 52.39 26.5 52.39 26.5 61.13 26.96 61.16 26.93 57.19 27.75 57.11 28.22 57.66 28.43 57.23 28.52 51.53 29.21 51.58 29.25 50.12 28.73 50.08 28.78 48.15 33.02 48.11 32.94 45.36 28.84 45.38C28.97 43.44 29.19 41.94 29.17 39.18L29.12 35.55C29.81 34.73 30.65 32.89 31.74 29.42L31.82 31.39 32.38 31.4 32.42 17.16 31.48 17.12C31.42 16.72 31.34 16.35 31.24 15.99L35.67 1.74 33.7 1.14ZM26.51 35.37C26.57 35.44 26.62 35.52 26.68 35.59L26.7 39.18C26.72 41.77 26.97 43.69 27.15 45.4L23.67 45.37 26.51 35.37Z"/>
</svg>