<svg id="svg3336" viewBox="0 0 50.97 61.07" width="50.97" height="61.07" xmlns:svg="http://www.w3.org/2000/svg"
	 version="1.1" xmlns="http://www.w3.org/2000/svg">
	<metadata id="metadata3342"/>
	<defs id="defs3340"/>
	<path id="path3346"
		  d="M25.49 0.16A25.33 25.33 0 0 0 0.16 25.49 25.33 25.33 0 0 0 25.02 50.79L25.04 51.41 25.68 51.45 25.98 56.51 25.17 56.63 25.21 52.3 24.7 52.3 24.7 61.05 25.15 61.07 25.13 57.11 25.94 57.02 26.41 57.58 26.63 57.15 26.71 51.45 27.4 51.49 27.42 50.74A25.33 25.33 0 0 0 50.82 25.49 25.33 25.33 0 0 0 25.49 0.16Z"/>
</svg>