<svg id="svg3336" viewBox="0 0 34.93 63.14" width="34.93" height="63.14" xmlns:svg="http://www.w3.org/2000/svg"
	 version="1.1" xmlns="http://www.w3.org/2000/svg">
	<metadata id="metadata3342"/>
	<defs id="defs3340"/>
	<path id="path3346"
		  d="m17.56 0l-0.23 1.94 0.05 8.19c-1.03 0.47-1.61 3.55-1.67 4.26l0 7.96c-0.88 0.1-1.9 0.1-2.31 0.56l-0.51 4.31 -0.09 4.91 -12.45 8.89c-0.82 3.7 0.06 3.54 0.46 4.07l5.97-1.25 8.1-0.14 -0.05 1.99c0.52 5.66 0.9 6.81 1.3 8.56l-6.34 4.74 -0.33 0.35 0.09 1.62c1.71-0.32 5.74-1.08 7.27-1.39l0 2.96 0.65 0.6 0.65-0.6 0.05-2.92 7.22 1.39 0-1.57 -0.46-0.65 -5.93-4.49c0.46-2.68 0.97-5.18 1.19-8.57l0.01-1.9 6.76-0.09 7.27 1.34c0.82-0.8 0.9-2.21 0.37-4.12L22.28 32.03 22 27.31 21.44 22.96C21.31 22.59 20.48 22.39 19.36 22.27l-0.05-7.92c-0.07-0.83-0.79-3.44-1.53-4.17l0.05-8.61Z"/>
</svg>