<svg id="svg2229" width="85.89" height="65.97" xmlns:svg="http://www.w3.org/2000/svg" version="1"
	 xmlns="http://www.w3.org/2000/svg">
	<metadata id="metadata2234"/>
	<defs id="defs2232"/>
	<path id="path2244"
		  d="m27.42 63.94c-0.04-0.99-0.05-1.92-0.02-2.07 0.06-0.3 0.45-1.15 0.96-1.9 0.19-0.35 0.3-0.51 0.79-0.56 5.42-0.4 5.41-0.39 11.07-0.91 0.02-0.03-0.01-0.16-0.04-0.32C40.03 57.41 40.02 57.07 39.85 56.28 39.69 55.61 39.6 54.99 39.47 54.27 39.36 53.6 39.3 52.85 39.22 52.28 38.18 47.55 38.77 42.3 38.56 39.28 38.53 38.73 29.23 39.18 29.22 39.17 20.29 38.41 10 37.71 1.48 36.99 1.33 36.98 0.79 36.87 0.62 36.72 0.28 36.41-0.07 34.35 0.01 33.17 0.06 32.45 0.19 32.17 0.62 31.84 0.95 31.59 1.17 31.51 1.55 31.49 10.56 30.23 20.59 28.84 28.58 27.64l0.66-0.1 0.06-0.65c0.03-0.36 0.06-0.67 0.05-0.7 0.01-0.04 0.01-0.13 0.04-0.23 0.03-0.1 0.07-0.45 0.1-0.79 0.07-0.83 0.26-1.61 0.36-2.44 0.07-0.59 0.24-1.48 0.28-1.53 0.12-0.34 0.12-0.34 0.18-0.51 0.06-0.18 0.07-0.18 0.07-0.2 0.01-0.02-6.19 0.18-6.21 0.15 -0.03-0.01-0.06-0.36-0.06-0.39 0.01-0.04-0.03-0.34-0.01-0.36 0.04-0.03 6.46 0.01 6.49-0.02 0.04-0.03 0.06-0.21 0.22-0.71l0.29-0.92 0.26 0c0.24 0 0.27 0.01 0.28 0.15 0 0.08 0.03 0.16 0.05 0.18 0.02 0.02 0.1 0.27 0.17 0.57 0.17 0.64 0.15 0.62 0.2 0.74 0.03 0.09 6.22-0.1 6.25-0.07 0.05 0.02 0.06 0.23 0.06 0.27 -0.01 0.05 0.02 0.31-0.04 0.31l-6.12 0.13 0.05 0.13c0.07 0.2 0.13 0.4 0.17 0.44 0.07 0.06 0.22 0.73 0.21 0.95 -0.01 0.06 0.04 0.42 0.1 0.82 0.08 0.43 0.08 0.92 0.14 1.3 0.04 0.23 0.11 0.94 0.15 1.57 0.05 0.63 0.1 1.17 0.11 1.19 2.02-0.21 3.59-0.51 5.59-0.8 0.4-0.06 0.4-0.06 0.4-0.25 0.02-1.38 0.03-2.72 0.03-2.76 0.01-0.04 0.01-0.49 0.02-1.04 0.02-0.82 0.04-2.53 0.04-4.01 0-0.17 0.01-0.41 0.02-0.53 -0.03-0.75-0.01-1.52 0-2.21 0.01-0.99 0.04-2.01 0.06-2.26 0.02-0.28 0-0.53-0.06-0.62 -0.25-0.38-0.19-1.39 0.1-1.95 0.09-0.17 0.16-0.45 0.17-0.65 0.03-0.88 0.25-2.9 0.41-3.64 0.31-1.52 0.78-2.73 1.47-3.81 0.54-0.85 0.94-1.28 1.27-1.38 0.28-0.08 0.27-0.05 0.27-0.73 0-0.16 0.02-0.29 0.05-0.29C43.05-0.01 43.06 0.22 43.06 0.48l0 0.49 0.26 0.11c0.47 0.2 0.67 0.41 1.36 1.46 0.49 0.75 0.79 1.42 0.97 2.22 0.19 0.74 0.33 1.43 0.46 2.17 0.15 0.61 0.36 2.66 0.28 2.76 -0.03 0.04 0.02 0.23 0.1 0.44 0.21 0.5 0.29 1.35 0.18 1.86 -0.27 0.97 0 0-0.15 0.51l-0.02 1.41c-0.02 1.5-0.02 1.79-0.02 3.39 0 0.56 0 1.41-0.01 1.88 -0.01 0.48-0.01 1.33-0.01 1.89 0.01 0.93 0.01 1.65 0 4.16l0 0.85c2.75 0.48 2.94 0.51 5.98 0.86 0.14-0.05 0.17-0.09 0.18-0.38 0.09-1.59 0.21-2.7 0.43-3.91 0.24-1.31 0.37-1.68 0.47-1.73 0.09-0.04 0.16-0.31 0.14-0.42 0-0.02-5.77 0.06-6.05 0.07 -0.27 0.01-0.18 0.06-0.18-0.39 0.01-0.17-0.09-0.45 0.08-0.45 0.32 0 6.37 0.14 6.36 0.1 0.01-0.05 0-0.03 0.04-0.2 0.04-0.18 0.14-0.58 0.22-0.89l0.14-0.57 0.28 0 0.28 0 0.04 0.22c0.02 0.12 0.11 0.48 0.19 0.79 0.08 0.32 0.14 0.59 0.13 0.66 -0.01 0.03 6.44-0.33 6.48-0.19 0.04 0.15 0-0.19 0.07 0.37 0.04 0.29 0.04 0.29 0.01 0.4 -0.03 0.11-6.41 0.06-6.4 0.1 0.06 0.17 0.06 0.19 0.09 0.25 0.06 0.12 0.07 0.13 0.21 0.18 0.16 0.2 0.18 0.24 0.33 0.64 0.08 0.33 0.18 0.82 0.22 1.09 0.11 0.79 0.29 2.87 0.33 3.9l0.04 0.95c0.11 0.17 1.05 0.2 1.1 0.2 0.58 0.09 1.21 0.19 1.41 0.21 14.18 2.37 14.27 2.42 25.61 3.93 0.03 0.03 0.08 0.02 0.1 0 0.05-0.06 0.44 0.14 0.66 0.33 0.25 0.22 0.45 0.82 0.44 1.31 0 0.46-0.64 2.88-0.85 3.22 -0.15 0.25-0.45 0.37-0.95 0.39 -9.6 0.71-19.32 1.59-27.66 2.29 -7.63-0.18-7.72-0.27-9.35-0.2 -0.14 6.71-0.05 9.05-0.96 13.22 -0.02 0.08-0.05 0.26-0.09 0.4 -0.03 0.14-0.1 0.55-0.14 0.9 -0.17 1.37-0.37 2.5-0.63 3.52 -0.26 1-0.27 1.11-0.09 1.13 3.67 0.35 7.16 0.59 10.63 0.9 0.19 0 0.32 0.01 0.34-0.01 0.22 0.01 0.24 0.02 0.49 0.34 1.15 2.1 1.28 2.56 1.24 4.33 -0.03 1.19-0.24 1.93-0.52 1.87 -4.94 0.06-9.66 0.07-14.39 0.07 -4.91 0.05-8.31-0.01-13.73 0.08 -1.21 0.04-1.47 0.02-1.59-0.09 -0.14-0.1-0.16-0.38-0.22-1.93Z"/>
</svg>