<svg id="svg3336" viewBox="0 0 81 97.99" width="81" height="97.99" xmlns:svg="http://www.w3.org/2000/svg" version="1.1"
	 xmlns="http://www.w3.org/2000/svg">
	<metadata id="metadata3342"/>
	<defs id="defs3340"/>
	<path id="path3346"
		  d="M58.21 0.05L56.85 1.92 46.78 23.27 45.21 23.27 44.86 17.81C44.52 16.05 44.02 14.61 43.73 14.21L43.6 12.73 42.29 12.73 42.27 13.31 41.3 13.1 39.18 13.03C38.47 13.22 37.76 13.45 37.2 13.95 36.49 14.55 36.25 16.28 35.83 17.72L35.54 23.06 35.33 23.09 25.42 2.79 23.36 0.44 21.96 1.07 22.59 3.3 32.72 23.39 32.65 23.39C32.2 23.49 31.95 23.82 31.84 24.17L31.79 28.6 31.05 24.09C30.85 23.7 30.72 23.23 30.2 23.28 29.92 23.36 29.7 23.6 29.56 24.12 28.86 26.75 28.83 30.96 28.8 34.9 28.8 34.95 28.81 35 28.81 35.04L28.76 35.08 27.88 33.41 3.57 27.86 0.44 28.01 0.05 29.5 2.18 30.4 28.27 36.02 28.84 35.71 28.85 35.71C29.06 39.03 29.11 42.64 29.66 45.4 29.67 45.42 29.68 45.45 29.69 45.47L29.16 45.38 9.92 61.24 8.1 63.79 9.04 65.01 11.06 63.88 31.44 46.64 31.54 46 32.87 44.87 33.08 45.52 35.49 45.63 35.56 59.36 39.38 79.46C38.34 81.22 37.21 82.95 36.38 84.78L36.42 87.27 34.83 87.66 36.26 78.67 35.37 77.94 34.09 86.65 31.02 83.5 30.74 85.17 33.89 88.63 32.88 89.84 31.75 97.22 32.96 97.92 34.2 89.52 37.66 93.37 38.05 92.01C37.46 91.65 39.12 90.47 38.99 88.63L53.56 84.98C53.77 83.98 53.73 83 53.45 82.06L42.13 81.96 45.36 59.06 45.25 46.08 47.62 45.85 47.73 44.99 48.43 44.95 49.85 46.11 50.16 46.03 50.21 47.91 69.59 63.61 72.46 64.87 73.46 63.7 71.95 61.95 51.12 45.5C51.39 44.14 51.66 42.05 51.94 35.42L52.46 35.29 52.6 35.01 54.15 36.06 78.23 29.6 80.95 28.01 80.6 26.51 78.29 26.71 52.6 33.96 52.24 34.5 51.96 34.58C51.78 31.2 51.85 27.85 51.27 24.4 51.11 23.92 50.92 23.49 50.46 23.58 50.26 23.63 50.08 23.69 49.97 23.91 49.27 25.11 49.22 27.23 48.94 29.02L48.79 24.75 58.98 3.85 59.57 0.77 58.21 0.05ZM31.79 38.71L31.87 44.69 31.03 45.38 31.02 45.7 30.59 45.63C31.24 43.95 31.49 41.27 31.79 38.71ZM48.9 39.02C49.27 41.63 49.63 44.06 49.88 45.09L48.8 44.24 48.9 39.02ZM50.3 45.42L50.51 45.45 50.35 45.46 50.3 45.42Z"/>
</svg>