<svg id="svg3336" viewBox="0 0 82.47 101.16" width="82.47" height="101.16" xmlns:svg="http://www.w3.org/2000/svg"
	 version="1.1" xmlns="http://www.w3.org/2000/svg">
	<metadata id="metadata3342"/>
	<defs id="defs3340"/>
	<path id="path3346"
		  d="M41.24 0.15A41.08 41.08 0 0 0 0.15 41.24 41.08 41.08 0 0 0 35.65 81.89L34.47 89.89 31.4 86.74 31.13 88.41 34.28 91.88 33.27 93.08 32.14 100.46 33.34 101.16 34.59 92.77 38.05 96.62 38.44 95.26C37.84 94.89 39.51 93.72 39.37 91.88L53.95 88.22C54.16 87.22 54.12 86.25 53.83 85.3L42.52 85.21 42.93 82.26A41.08 41.08 0 0 0 82.32 41.24 41.08 41.08 0 0 0 41.24 0.15ZM36.63 82.04A41.08 41.08 0 0 0 39.67 82.24L39.76 82.7C38.72 84.46 37.6 86.19 36.77 88.02L36.8 90.51 35.21 90.9 36.63 82.04ZM40.07 82.56l1.54 0.08 0.42-2.28 -0.23-26.69 -0.43-0.49 -0.08-7.3 0.36-0.06 -0.15-0.57 -0.36-0.33 0.06-0.31 -0.37 0.01 0.04 0.35 -0.55 0.37 -0.01 0.51 0.32-0.04 -0.06 7.32 0.23 0.21 -1.43 1.22 -0.1 24.93Z"/>
</svg>