<svg id="svg2" width="19.8" height="57" xmlns:svg="http://www.w3.org/2000/svg" version="1.1"
	 xmlns="http://www.w3.org/2000/svg">
	<defs id="defs4"/>
	<metadata id="metadata7"/>
	<path id="path4147"
		  d="m12.51 0l-3.35 0 0 2.01 0.86 0 -1.25 15.5 -2.77-0.09 -0.38 1.53 -0.28-1.34c-1.13-0.48-2.26-0.65-3.43 0.07l0 7.14c1.1 0.67 2.23 0.75 3.39 0.07l0.51-0.78 0 6.49 -0.57-0.98c-1.06-0.39-2.12-0.44-3.18 0.03l-0.2 7.24 0.51 0.67 -1.35 0.1 -0.13 3.18L0 40.89l0.07 7.45 1.52 0.03 0.03 6.6c1.26 0.57 2.49 0.6 3.65 0l0.44-0.47 -0.1 2.51 10.01-0.03 0-3.28 0.75 0 0 1.63c1.15 0.56 1.99 0.6 3.15 0l0-7.75c-0.79-0.43-1.66-1.04-3.1 0l-0.46-0.64 0.13-9.41c1.15 0.44 2.3 0.52 3.44 0.07l0.07-7.99c-1.28-0.65-2.38-0.33-3.49 0.03l-0.07-4.27c1.23 0.44 2.45 0.67 3.72 0.03l0.03-8.02C18.59 16.98 17.39 17.06 16.21 17.34l-0.31 0.81 -0.34-0.88 -2.4-0.1 -1.18-15.15 0.67 0Z"/>
</svg>