<svg id="svg2229" width="86.97" height="66.82" xmlns:svg="http://www.w3.org/2000/svg" version="1"
	 xmlns="http://www.w3.org/2000/svg">
	<metadata id="metadata2234"/>
	<defs id="defs2232"/>
	<path id="path2244"
		  d="m27.51 64.62c-0.03-1-0.03-1.95 0-2.1 0.06-0.3 0.47-1.16 0.99-1.91 0.19-0.35 0.31-0.52 0.8-0.56 5.49-0.36 5.49-0.35 11.22-0.83 0.01-0.03-0.01-0.16-0.04-0.33 -0.13-0.78-0.14-1.13-0.31-1.93 -0.15-0.68-0.24-1.3-0.37-2.04 -0.04-0.23-0.08-0.53-0.09-0.68 -0.01-0.15-0.05-0.51-0.08-0.8l-0.06-0.53 -0.39-0.13c-1.08-0.37-2.4-0.99-3.02-1.42 -0.26-0.18-0.55-0.36-0.66-0.42 -0.33-0.16-1.61-1.2-2.06-1.66 -0.23-0.24-0.41-0.41-0.43-0.43 -0.04-0.05-0.04-0.05-0.1-0.12l-0.55-0.77c-0.89-1.24-1.38-2.01-1.52-2.41 -0.07-0.2-0.23-0.6-0.36-0.89 -0.42-0.95-0.78-2.67-0.86-4.1 -0.03-0.55-0.06-1.01-0.07-1.02C20.5 38.71 10.09 37.92 1.47 37.12 1.32 37.08 0.77 36.99 0.6 36.83 0.26 36.51-0.08 34.43 0.02 33.23 0.07 32.5 0.2 32.22 0.64 31.89 0.98 31.64 1.21 31.56 1.59 31.55 10.72 30.34 20.89 29.02 29 27.87l0.67-0.1 0.07-0.66c0.04-0.36 0.06-0.68 0.06-0.71 -0.01-0.04 0.01-0.13 0.04-0.23 0.03-0.1 0.08-0.45 0.11-0.79 0.08-0.84 0.27-1.63 0.38-2.47 0.08-0.59 0.25-1.5 0.3-1.55 0.12-0.34 0.12-0.34 0.18-0.51 0.07-0.18 0.07-0.19 0.07-0.2 0-0.02-6.27 0.12-6.29 0.1 -0.03-0.03-0.06-0.37-0.06-0.39 0-0.04-0.03-0.34-0.01-0.36 0.03-0.04 6.55 0.07 6.57 0.05 0.03-0.03 0.06-0.21 0.23-0.72l0.3-0.93 0.27 0c0.24 0 0.27 0.02 0.28 0.15 0.01 0.09 0.03 0.16 0.04 0.18 0.02 0.03 0.09 0.28 0.17 0.58 0.16 0.65 0.15 0.63 0.2 0.76 0.03 0.09 6.3-0.05 6.33-0.03 0.04 0.04 0.06 0.23 0.06 0.27 0 0.05 0.01 0.32-0.04 0.32l-6.19 0.09 0.05 0.14c0.07 0.2 0.13 0.41 0.17 0.44 0.07 0.07 0.21 0.74 0.21 0.96 0 0.07 0.04 0.43 0.1 0.84 0.08 0.43 0.08 0.93 0.13 1.32 0.04 0.23 0.1 0.95 0.14 1.59 0.04 0.64 0.09 1.18 0.1 1.21 2.05-0.2 3.64-0.49 5.67-0.76 0.41-0.06 0.41-0.06 0.41-0.24 0.03-1.4 0.06-2.76 0.05-2.79 0-0.04 0.01-0.5 0.03-1.05 0.03-0.83 0.06-2.57 0.08-4.06 0-0.17 0.01-0.41 0.02-0.54 -0.03-0.76 0.01-1.54 0.02-2.24 0.02-1 0.05-2.03 0.08-2.29 0.03-0.28 0.01-0.53-0.06-0.63 -0.25-0.39-0.18-1.41 0.12-1.98 0.09-0.17 0.17-0.45 0.18-0.66 0.04-0.89 0.28-2.93 0.44-3.69 0.33-1.54 0.81-2.75 1.52-3.84 0.56-0.86 0.97-1.29 1.3-1.38 0.28-0.09 0.27-0.06 0.28-0.73 0-0.16 0.03-0.29 0.05-0.29 0.03 0 0.05 0.22 0.05 0.49l-0.01 0.49 0.26 0.11c0.48 0.21 0.68 0.42 1.36 1.49 0.49 0.76 0.78 1.45 0.96 2.25 0.19 0.76 0.32 1.45 0.45 2.2 0.15 0.62 0.34 2.7 0.26 2.8 -0.03 0.04 0.02 0.23 0.1 0.44 0.21 0.51 0.28 1.37 0.16 1.88 -0.28 0.98 0 0-0.16 0.52l-0.03 1.43c-0.03 1.51-0.04 1.81-0.05 3.43 -0.01 0.56-0.02 1.42-0.03 1.91 -0.01 0.48-0.02 1.34-0.02 1.91 0 0.94-0.01 1.67-0.03 4.22l-0.01 0.86c2.78 0.51 2.98 0.54 6.05 0.92 0.15-0.06 0.17-0.09 0.19-0.38 0.1-1.61 0.24-2.74 0.47-3.96 0.26-1.33 0.39-1.7 0.49-1.75 0.09-0.05 0.16-0.32 0.15-0.43 -0.01-0.03-5.85 0.03-6.13 0.03 -0.27 0.01-0.18 0.06-0.18-0.4 0.01-0.18-0.09-0.46 0.09-0.46 0.33 0 6.45 0.2 6.44 0.15 0-0.05-0.01-0.03 0.04-0.2 0.05-0.18 0.15-0.58 0.23-0.9l0.15-0.57 0.28 0.01 0.28 0.01 0.04 0.22c0.02 0.12 0.1 0.48 0.18 0.8 0.08 0.32 0.13 0.6 0.13 0.67 0 0.03 6.52-0.28 6.56-0.14 0.04 0.15 0.01-0.19 0.07 0.37 0.03 0.3 0.04 0.3 0.01 0.41 -0.03 0.11-6.49 0.01-6.48 0.06 0.06 0.18 0.05 0.19 0.09 0.26 0.07 0.12 0.08 0.12 0.21 0.18 0.17 0.2 0.19 0.24 0.32 0.65 0.08 0.33 0.17 0.83 0.21 1.11 0.11 0.8 0.27 2.91 0.3 3.95l0.03 0.96c0.11 0.17 1.07 0.21 1.11 0.22 0.58 0.1 1.22 0.2 1.43 0.23 14.35 2.52 14.43 2.57 25.91 4.2 0.03 0.04 0.07 0.04 0.1 0.01 0.05-0.06 0.45 0.14 0.66 0.34 0.25 0.23 0.45 0.83 0.44 1.33 -0.01 0.47-0.68 2.91-0.89 3.26 -0.16 0.25-0.46 0.37-0.96 0.39 -9.73 0.64-19.58 1.45-28.03 2.09l-0.23 0.04 0 0.28c0 0.65-0.35 2.72-0.58 3.47 -0.19 0.61-0.8 1.95-1.23 2.71 -0.14 0.24-0.43 0.67-0.66 0.96 -0.22 0.29-0.54 0.69-0.69 0.89l-0.28 0.37c-0.05 0.1-0.05 0.09-0.13 0.19 -0.22 0.21-0.29 0.28-0.64 0.64 -0.84 0.86-1.63 1.46-2.79 2.1 -0.58 0.32-1.82 0.83-2.71 1.12 -0.48 0.16-0.58 0.21-0.6 0.33 -0.02 0.09-0.06 0.26-0.09 0.41 -0.04 0.15-0.1 0.55-0.15 0.91 -0.18 1.39-0.39 2.52-0.67 3.55 -0.27 1.01-0.28 1.13-0.1 1.15 3.71 0.38 7.24 0.66 10.76 1 0.19 0 0.33 0.02 0.35-0.02 0.22 0.03 0.24 0.04 0.49 0.34 1.15 2.13 1.28 2.6 1.22 4.4 -0.04 1.2-0.26 1.95-0.54 1.89 -5.01 0.04-9.79-0.02-14.57-0.06 -4.97 0.03-8.42-0.09-13.91-0.04 -1.22 0.04-1.49 0.02-1.61-0.1 -0.13-0.11-0.15-0.38-0.2-1.96Z"/>
</svg>