<svg id="svg4136" viewBox="0 0 60.12 67.38" width="60.12" height="67.38" xmlns:svg="http://www.w3.org/2000/svg"
	 version="1.1" xmlns="http://www.w3.org/2000/svg">
	<metadata id="metadata4142"/>
	<defs id="defs4140"/>
	<path id="path4156"
		  d="m29.61 67.2l0.76-0.02c0.53-0.71 0.58-2.23 0.58-2.23l-0.04-2.9 10.67 2.1 -0.22-3.27c-0.16-0.65-0.58-1.05-0.58-1.05l-8.85-6.02c0.58-3.88 0.87-12.88 0.87-12.88 0.51-0.62 0.65-1.81 0.65-1.81l1.09 0 0.54-1.96 24.85 4.21 -0.83-5.26c-0.36-0.83-1.05-1.2-1.05-1.2l-20.54-11.54 -0.04-1.09 -1.71-2.25 -0.25 0.54 -1.49-2c0 0 0.11-4.5-0.33-5.26 0 0-0.07-0.87-0.54-0.98 0 0 0.07-2.9-0.15-5.04 0 0-0.33-2.65-1.05-4.46 -0.36-1.23-0.76-1.96-0.76-1.96 -0.44-0.54-1.09-0.69-1.09-0.69 0 0-0.83 0.15-1.31 0.76 0 0-0.58 0.94-0.83 1.96 -0.69 1.67-0.94 4.1-0.94 4.1 -0.22 2.29-0.07 5.37-0.07 5.37 -0.58 0.29-0.51 0.98-0.51 0.98 -0.4 0.98-0.36 5.19-0.36 5.19l-1.49 2.14 -0.36-0.62 -1.71 2.25 0.04 1.05 -20.75 11.72c0 0-0.8 0.44-0.94 1.42l-0.69 4.75 24.71-4.1 0.69 1.92 0.98-0.04c0 0 0.11 1.27 0.76 1.92 0 0 0 8.96 0.91 12.74l-8.49 5.99c0 0-0.63 0.34-0.96 1.09l-0.27 3.3 10.56-2.07 0.07 3.05c0 0 0.11 1.42 0.47 2.14Z"/>
</svg>