<svg id="svg3336" viewBox="0 0 67.17 79.93" width="67.17" height="79.93" xmlns:svg="http://www.w3.org/2000/svg"
	 version="1.1" xmlns="http://www.w3.org/2000/svg">
	<metadata id="metadata3342"/>
	<defs id="defs3340"/>
	<path id="path3346"
		  d="m34.21 0.09c-0.41 0-1.04 0.08-1.96 0.33 -0.17 0.03-0.4 1.25-0.51 1.79 0.04 0.15 0.47 1.04 0.71 1.16l0.02 6.88 -0.21-0.02 -2.68 2.96 -1.55 5.46 -0.05 9.55 -1.23 0.04 -0.02 1.45L5.65 21.34C4.73 20.71 3.2 19.5 2.9 19.45 2.74 19.46 2.3 20.04 2.09 21.93c-0.04 0.17 1.01 0.84 1.47 1.14 0.16 0.02 1.14-0.05 1.34-0.22l21.75 8.69 0.07 0.03 -0.01 1.1 1.32-0.04 0.13 0.54 -1.04 3.37 0.09 1.73 0.04 0.99 -0.12 0.15 -2.01 0.04 0.09 2.39 -11.75 14.86c-0.87 0.69-2.47 1.82-2.6 2.08 -0.03 0.16 0.4 0.75 2.14 1.49 0.16 0.09 1.1-0.73 1.52-1.08 0.06-0.15 0.28-1.11 0.17-1.35l10.62-13.35 0.04 1.23 0.55 2.73 2.5 0.04 2.96 14.97 0.32 6.37 -2.18 0.23 -0.04-2.41 -1.14 0.02 0.05 2.57 -2.73 0.32 -0.04 3.64 2.84 0.43 0.09 5.21 1.23 0 -0.07-5.05 1.37 0.18 -0.32 0.91 0.36 3.28 1.59-3.87 1 0 0.04-0.36 6.32-0.73 0.04-3.46 -5.82-0.82 0.36-6.23 2.87-15.29 2.59 0.04 0.46-2.73 0.01-0.39 10.15 12.58c0.49 1 1.23 2.81 1.46 3 0.15 0.06 0.81-0.22 1.92-1.76 0.12-0.13-0.47-1.23-0.72-1.72 -0.13-0.09-1.02-0.52-1.28-0.46l-11.46-14.29 0.09-3.2 -2.05-0.09 0.05-3.19 -0.64-2.82 -0.04-0.73 1.05 0 0.02-0.89 0.84 0.39 21.44-8.93c1.1-0.19 3.04-0.39 3.29-0.56 0.1-0.12 0.01-0.84-1.15-2.34 -0.09-0.15-1.31 0.11-1.85 0.21 -0.13 0.1-0.79 0.83-0.8 1.09L39.23 30.58 39.13 30.61 39.18 28.11 38.04 28.06 37.86 18.74 36.13 13.1 34.4 10.46 34.16 10.43 34.13 3.5c0.24-1.08 0.79-2.96 0.73-3.26 -0.04-0.07-0.23-0.15-0.64-0.15Z"/>
</svg>