<svg id="svg3336" viewBox="0 0 66.85 79.75" width="66.85" height="79.75" xmlns:svg="http://www.w3.org/2000/svg"
	 version="1.1" xmlns="http://www.w3.org/2000/svg">
	<metadata id="metadata3342"/>
	<defs id="defs3340"/>
	<path id="path3346"
		  d="M34.82 0C34.51 0 34.03 0.07 33.44 0.2a33.42 33.42 0 0 0-0.01 0A33.42 33.42 0 0 0 0 33.63 33.42 33.42 0 0 0 11.55 58.87c0.09 0.13 0.3 0.31 0.6 0.51a33.42 33.42 0 0 0 20 7.6l0.14 2.75 -2.18 0.23 -0.04-2.41 -1.14 0.02 0.05 2.57 -2.73 0.32 -0.04 3.64 2.84 0.43 0.09 5.21 1.23 0 -0.07-5.05 1.37 0.18 -0.32 0.91 0.36 3.28 1.59-3.87 1 0 0.04-0.36 6.32-0.73 0.04-3.46 -5.82-0.82 0.17-2.84A33.42 33.42 0 0 0 52.79 60.81c0.12 0.04 0.52-0.12 1.18-0.84A33.42 33.42 0 0 0 66.85 33.63 33.42 33.42 0 0 0 64.96 22.67c0.14-0.03 0.29-0.07 0.33-0.1 0.1-0.12 0.01-0.84-1.15-2.34 -0.01-0.02-0.09-0.02-0.15-0.03A33.42 33.42 0 0 0 35.45 0.3c0-0.04 0.02-0.13 0.02-0.15 -0.04-0.07-0.23-0.15-0.64-0.15Z"/>
</svg>