<svg id="svg3336" viewBox="0 0 72.03 72.72" width="72.03" height="72.72" xmlns:svg="http://www.w3.org/2000/svg"
	 version="1.1" xmlns="http://www.w3.org/2000/svg">
	<metadata id="metadata3342"/>
	<defs id="defs3340"/>
	<path id="path3346"
		  d="M35.54 0.17C35.06 1.08 34.51 3.48 34.34 4.44c0 0-1.25 5.85-1.23 6.25l-0.43 11.96 -3.43-0.1 -0.03 2.95 -5.85 14.54 -21.67 8.43c-1.62 1.99-1.6 3.76-1.65 5.01l26.83-1.42 0.07 4.51 -10.31 13.17 1.29 2.79 8.38-1.43 1.79-3.44 0.64 0 0 5.01 0.72-1.58 0.57-0.86 1.94-0.01 0.39-1.22 0.67 0.12 0.14 0.55 1.45 0.06 0 2.72 2.36 0 0.14-2.65 1.5-0.21 0.08-0.55 1.03-0.02 0.54 1.29 2-0.07 1.22 1.93 0.02-4.42 0.56-0.02 1.65 3.15 7.88 1.29 1.72-2.65 -10.02-12.17 0-5.3 26.71 0.93c-0.09-1.63 0.06-3.18-1.29-5.3 -0.2-0.52-14.75-5.2-22.12-7.8l-6.53-14.7 -0.07-2.74 -2.99-0.02 -0.43-11.69C38.26 8.95 37.6 6.52 37.12 4.68 36.7 3.12 36.04 0.93 35.54 0.18Z"/>
</svg>