<svg id="svg3037" viewBox="0 0 39 65" width="39" height="65" xmlns:svg="http://www.w3.org/2000/svg" version="1.1"
	 xmlns="http://www.w3.org/2000/svg">
	<metadata id="metadata9"/>
	<defs id="defs7"/>
	<path id="path3"
		  d="M22.75 9.75Q20.79 0.91 19.6 0.03L19.5 0q-1.08 0.03-3.25 9.75l-1.08 11.92 -2.17 7.58 0 2.17 -11.92 9.92 0-2.34q0-0.88-0.15-1.52 -0.15-0.64-0.39-0.64 -0.24 0-0.39 0.64Q0 38.12 0 39l0 3.25 0 5.42 0 2.17 1.08 0 0-2.17 14.08 0 0 5.42 -7.58 6.5 0 3.25 1.08 1.08 6.5 0 0-1.08 1.08 0 0-4.33 0.27 0 0.81 6.5 4.33 0 0.81-6.5 0.27 0 0 4.33 1.08 0 0 1.08 6.5 0 1.08-1.08 0-3.25 -7.58-6.5 0-5.42 14.08 0 0 2.17 1.08 0 0-2.17 0-5.42 0-3.25q0-0.88-0.15-1.52 -0.15-0.64-0.39-0.64 -0.24 0-0.39 0.64 -0.15 0.64-0.15 1.52l0 2.34 -11.92-9.92 0-2.17 -2.17-7.58Z"/>
</svg>