<svg id="svg3336" viewBox="0 0 49.18 58.93" width="49.18" height="58.93" xmlns:svg="http://www.w3.org/2000/svg"
	 version="1.1" xmlns="http://www.w3.org/2000/svg">
	<metadata id="metadata3342"/>
	<defs id="defs3340"/>
	<path id="path3346"
		  d="M24.53 0.12L22.92 3.82 21.45 15.87l-0.73 1.81 -1.58-1.66 -0.81 1.39 -0.38 9.55 -10.77 7.25 -7.13 4.8 0 5.35 7.82 1.89 8.23 2.11 -7.74 5.35 0.04 1.92 12.47 3.23 1.31-8.55 0.92 2 2.96-0.04 0.92-1.89 1.27 8.35 12.51-3.08 -0.04-2.04 -7.78-5.27 8.39-2.1 7.78-1.95 -0.04-5.31 -7.08-4.74 -10.78-7.23 -0.42-9.59 -0.77-1.46 -1.54 1.69 -0.65-1.54 -1.62-12.28Z"/>
</svg>