<svg id="svg2" width="2.71" height="5.76" xmlns:svg="http://www.w3.org/2000/svg" version="1.1"
	 xmlns="http://www.w3.org/2000/svg">
	<defs id="defs4"/>
	<metadata id="metadata7"/>
	<path id="path4134"
		  d="m2.94 4.51l0-4.51 -1.42 0 0 4.48 -1.14 0 0 1.7 0.82 0 0 1.26C0.77 7.17 0.38 7.28 0 7.45l0 2.87c0.34 0.14 0.69 0.24 1.07 0l0 5.78c-0.25-0.15-0.55-0.22-1.01 0l0 2.87c0.33 0.21 0.65 0.26 0.98 0 1.25 1.89 6.02 1.92 7.67 0 0.27 0.24 0.5 0.18 0.73 0l0-2.65c-0.24-0.16-0.47-0.33-0.79 0l0-6.03c0.3 0.18 0.62 0.2 0.96 0l0-2.71c-0.34-0.25-0.64-0.27-1.06 0l0-1.45 0.95 0 0-1.61 -1.39 0 0-4.48 -1.39 0 0 4.48Z"/>
</svg>