<svg id="svg2" width="65.82" height="77.02" xmlns:svg="http://www.w3.org/2000/svg" version="1"
	 xmlns="http://www.w3.org/2000/svg">
	<defs id="defs4"/>
	<metadata id="metadata7"/>
	<path id="rect4319"
		  d="M32.9 0.04A32.76 32.76 0 0 0 0.15 32.8 32.76 32.76 0 0 0 29.4 65.29l0 4.2 0.27 0.02 0-4.19a32.76 32.76 0 0 0 1.58 0.15l0.04 0.33 0.08 3.11c-0.2 0.02-0.4 0.05-0.6 0.09l-0.02-0.1 -0.04 1.19 -0.49 0.15 0 0.19 -0.31 0 0 0.33 -0.67 0.03 0-0.44 0.73 0.01 0-0.85 -0.84 0 0 0.64 -0.17 0 0 1 0.17 0 0 0.61 0.31 0 0 5.13 0.27 0 0-5.13 0.26 0 0-0.83 0.25 0 0 0.31 0.48 0 0.17 1.64 0.57-0.4 0.83 0.05 0.36-0.27 0.35-1.23 12.97 0 0-3.25 -13.24 0 0.33-1.75 0.06-0.51A32.76 32.76 0 0 0 65.66 32.8 32.76 32.76 0 0 0 32.9 0.04Z"/>
</svg>