<svg id="svg2" width="62.02" height="77.34" xmlns:svg="http://www.w3.org/2000/svg" version="1"
	 xmlns="http://www.w3.org/2000/svg">
	<defs id="defs4"/>
	<metadata id="metadata7"/>
	<path id="path4496"
		  d="m20.13 0.06c-0.13-0.03-0.28 0.04-0.45 0.2l-0.95 1.02c-0.13 0.16-0.48 0.27 0 1.52l7.41 18.04 -0.4 10.57 0.01 0.65c-1.42-0.02-2.61 0.28-3.82 0.54l-21.33 8.7c-0.47 0.16-0.5 0.42-0.19 0.76l1.02 0.95c0.16 0.13 0.27 0.48 1.52 0l21.81-8.96c-0.62 0.55-1.1 1.28-1.12 2.63l0 3.3c0.23 2.1 1.13 3.46 2.35 4.38l0-0.14c0.65 8.02 2.29 12.59 3.61 18.33l-0.06 0.01c0.04 0 0.04 0 0.07-0.01 0.02 0.11 0.05 0.22 0.07 0.33l0.4 3.29 0.02 0.81 -0.03 2.3c-0.17 0.02-0.34 0.04-0.52 0.08l-0.02-0.09 -0.04 1.19 -0.49 0.15 0 0.19 -0.31 0 0 0.33 -0.67 0.03 0-0.44 0.73 0.01 0-0.84 -0.84 0 0 0.64 -0.17 0 0 1 0.17 0 0 0.61 0.31 0 0 5.13 0.27 0 0-5.13 0.26 0 0-0.83 0.25 0 0 0.31 0.48 0 0.17 1.64 0.57-0.4 0.83 0.05 0.37-0.27 0.35-1.23 12.97 0 0-3.25 -13.24 0 0.33-1.75 0.05-0.42c0.21-1.17 0.4-2.43 0.54-4.07l3.09-14.79 5.76 14.12c0.16 0.47 0.42 0.5 0.76 0.19l0.95-1.02c0.13-0.16 0.48-0.27 0-1.52l-6.32-15.38c0.76-0.86 1.3-2.01 1.47-3.56l0-3.3c-0.03-2.02-1.08-2.66-2.1-3.37l-0.03 1.44c0.01-1.64 0-3.35 0-5.04 1.54 0.12 2.81-0.15 4.1-0.39l21.61-7.99c0.47-0.14 0.51-0.41 0.21-0.76l-0.98-0.98c-0.16-0.13-0.25-0.49-1.52-0.05l-23.42 8.73c0-3.05 0-6.08 0.03-8.92l-0.7-4.51c-0.61-3.64-2.51-5.65-4.43-5.76 -1.92-0.1-3.85 1.7-4.52 5.69l-0.01 0.19 -5.92-14.51c-0.08-0.23-0.18-0.36-0.31-0.39Zm5.63 33.57l0.02 1.48 -0.03-1.47 0.02-0.01Zm2.42 31.07l0 5.16 0.27 0.02 0-5.18 -0.27 0Z"/>
</svg>