<svg id="svg2" enable-background="new 0 0 1169.357 1514.639" x="0" y="0" width="41.3" height="57.92" xmlns:svg="http://www.w3.org/2000/svg" version="1.1" xmlns="http://www.w3.org/2000/svg" xml:space="preserve"><metadata id="metadata4878"/><defs id="defs4876"/><a id="a7783"/><path id="_x31_531" d="M20.75 0.34L20.64 0.69 20.54 1.04 20.44 1.39 20.34 1.74 20.24 2.1 20.14 2.45 20.04 2.8 19.95 3.16 19.86 3.52 19.77 3.88 19.73 4.06 19.69 4.24 19.65 4.42 19.61 4.6 19.57 4.78 19.53 4.96 19.49 5.14 19.45 5.32 19.42 5.5 19.39 5.68 19.36 5.86 19.33 6.04 19.3 6.22 19.27 6.4 19.24 6.58 19.21 6.76 19.15 7.12 19.09 7.48 19.04 7.84 18.99 8.2 18.94 8.56 18.89 8.92 18.84 9.28 18.79 9.64C18.78 9.76 18.76 9.88 18.74 10L18.68 10.36 18.62 10.72C18.61 10.84 18.57 10.96 18.55 11.08L18.47 11.44 18.39 11.8C18.37 11.92 18.33 12.04 18.3 12.16L18.2 12.52 18.1 12.88C18.05 13 18.03 13.12 17.99 13.24 17.95 13.36 17.91 13.47 17.87 13.59 17.83 13.71 17.79 13.82 17.75 13.94L17.63 14.29 17.5 14.64 17.25 15.33 17.13 15.68 17.01 16.03 16.95 16.21 16.89 16.38 16.83 16.56 16.77 16.74 16.71 16.92 16.66 17.1 16.6 17.28 16.55 17.46 16.5 17.64 16.45 17.82 16.4 18 16.36 18.18 16.32 18.36 16.28 18.54 16.26 18.63 16.24 18.72 16.22 18.81 16.2 18.9 16.17 19.08 16.14 19.26 16.11 19.44 16.09 19.55 16.05 19.56 15.45 19.82 15.52 20.44 11.2 24.19 11.02 24.39 10.88 24.62 10.79 24.87 10.76 25.14 10.76 26.71 14.49 25.57 13.64 29.17 13.62 29.27 13.61 29.32 13.6 29.37 13.59 29.42 13.58 29.47 13.58 29.52 13.58 29.57 1.06 42.2 1.17 42.31 0.91 42.56 0.92 39.76 0.91 39.66 0.85 39.59 0.76 39.56 0.67 39.58 0.67 39.38 0.67 39.36 0.67 39.34 0.66 39.32 0.65 39.3 0.64 39.28 0.63 39.26 0.61 39.24 0.59 39.22 0.57 39.2 0.55 39.18 0.52 39.16 0.49 39.14 0.46 39.12 0.43 39.11 0.4 39.1 0.37 39.09 0.33 39.08 0.3 39.07 0.26 39.06 0.22 39.05 0.18 39.04 0.14 39.04 0.1 39.04 0.06 39.04 0.06 49.44 0.1 49.44 0.14 49.44 0.18 49.44 0.22 49.44 0.26 49.43 0.3 49.42 0.33 49.41 0.37 49.4 0.4 49.39 0.43 49.38 0.46 49.37 0.49 49.36 0.52 49.34 0.55 49.32 0.57 49.3 0.59 49.28 0.61 49.26 0.63 49.24 0.64 49.22 0.65 49.2 0.66 49.18 0.67 49.16 0.67 49.14 0.67 49.12 0.67 49.11 0.67 49.1 0.67 49.09 0.67 49.08 0.67 49.07 0.68 49.06 0.68 49.05 0.69 49.04 0.7 49.03 0.71 49.02 0.72 49.01 0.73 49 0.74 48.99 0.75 48.99 0.76 48.99 0.77 48.99 0.81 49.08 0.9 49.12 0.99 49.08 1.03 48.99 1.03 48.22 1.03 48.21 14.99 49.26 14.99 52.07 16.17 52.07 16.21 52.32 16.25 52.56 16.29 52.8 16.33 53.04 16.38 53.28 16.43 53.52 16.48 53.75 16.53 53.98 16.64 53.98 16.65 54.02 16.64 53.98 19.16 53.98 19.21 53.75 19.26 53.52 19.31 53.28 19.36 53.04 19.4 52.8 19.44 52.56 19.48 52.32 19.5 52.17 19.5 53.98 19.99 53.98 19.99 54.05 20 54.12 20 54.19 20.01 54.25 20.01 54.31 20.01 54.34 20.01 54.37 20.01 54.4 20.01 54.43 20.01 54.46 20.01 54.49 20.01 54.52 20.01 54.55 20.01 54.57 20.01 54.6 20.01 54.62 20.01 54.64 20.01 54.66 20.01 54.68 20.01 54.7 20.01 54.72 20.01 54.74 20.02 54.76 20.02 54.78 20.02 54.8 20.02 54.82 20.02 54.84 20.03 54.86 20.03 54.88 20.03 54.9 20.03 54.91 20.04 54.92 20.04 54.93 20.04 54.94 20.05 54.95 20.05 54.96 20.06 54.97 20.06 54.98 20.07 54.99 20.07 55 20.08 55.01 20.09 55.02 20.1 55.02 20.11 55.02 20.12 55.02 20.13 55.02 20.14 55.02 20.15 55.02 20.16 55.02 20.17 55.02 20.18 55.02 20.19 55.02 20.2 55.02 20.21 55.02 20.22 55.02 20.23 55.02 20.24 55.02 20.25 55.02 20.27 55.02 20.29 58.04 20.62 58.04 20.95 58.04 20.95 55.02 21.01 55.02 21.05 55.02 21.08 55.02 21.1 55.01 21.13 54.99 21.15 54.96 21.17 54.92 21.19 54.86 21.21 54.79 21.22 54.71 21.24 54.62 21.25 54.52 21.26 54.41 21.27 54.29 21.28 54.17 21.29 54.04 21.3 53.97 21.79 53.97 21.79 52.16 21.84 52.37 21.86 52.56 21.95 53.05 22.04 53.53 22.14 54 24.77 54 24.87 53.53 24.96 53.05 25.05 52.56 25.13 52.07 26.31 52.07 26.31 49.26 40.26 48.21 40.26 49 40.3 49.09 40.39 49.13 40.49 49.09 40.53 49 40.55 49 40.57 49.01 40.59 49.03 40.6 49.05 40.62 49.11 40.63 49.17 40.63 46.01 40.64 45.64 40.64 45.27 40.63 45.27 40.63 39.66 40.54 39.64 40.45 39.67 40.39 39.74 40.38 39.84 40.38 42.64 40.13 42.39 40.24 42.28 27.72 29.65 27.71 29.55 27.7 29.45 27.66 29.26 26.73 25.31 30.67 26.51 30.67 24.94 30.64 24.67 30.56 24.42 30.42 24.19 30.24 23.99 25.91 20.24 25.98 19.62 25.33 19.34 25.31 19.19 25.29 19.08 25.27 18.98 25.25 18.87 25.23 18.77 25.21 18.67 25.19 18.57 25.17 18.47 25.15 18.36 25.13 18.26 25.11 18.16 25.08 18.06 25.06 17.96 25.03 17.86 25.01 17.76 24.98 17.66 24.95 17.56 24.92 17.46 24.89 17.36 24.86 17.26 24.83 17.16 24.8 17.06 24.77 16.96 24.74 16.86 24.71 16.76 24.68 16.66 24.65 16.56 24.62 16.46 24.59 16.36 24.56 16.26 24.53 16.16 24.5 16.06 24.47 15.96 24.44 15.86 24.37 15.66 24.3 15.46 24.23 15.26 24.08 14.86 23.93 14.46 23.86 14.26 23.79 14.06 23.72 13.86 23.65 13.66C23.63 13.59 23.61 13.53 23.59 13.46 23.57 13.39 23.55 13.33 23.53 13.26 23.51 13.19 23.49 13.13 23.47 13.06 23.45 12.99 23.43 12.93 23.41 12.86 23.39 12.79 23.37 12.73 23.35 12.66 23.33 12.59 23.31 12.53 23.29 12.46 23.27 12.39 23.25 12.33 23.23 12.26 23.21 12.19 23.19 12.13 23.17 12.06 23.15 11.99 23.13 11.93 23.11 11.86 23.1 11.79 23.08 11.73 23.06 11.66 23.05 11.59 23.03 11.53 23.02 11.46 23.01 11.39 22.99 11.33 22.98 11.26 22.97 11.19 22.95 11.12 22.94 11.05 22.93 10.98 22.91 10.92 22.9 10.85 22.89 10.78 22.87 10.71 22.86 10.64 22.84 10.57 22.83 10.5 22.82 10.43 22.8 10.36 22.79 10.29 22.78 10.22L22.76 10.12 22.74 10.02 22.46 10.16 24.53 9.09 24.77 8.92 24.96 8.69 25.08 8.42 25.12 8.13 25.12 6.78 24.79 6.78 24.79 8.2 24.76 8.38 24.66 8.53 24.52 8.64 22.39 9.66 22.68 9.52 22.66 9.37 22.64 9.23 22.6 8.93 22.56 8.63 22.52 8.34C22.51 8.24 22.49 8.14 22.48 8.04 22.47 7.94 22.45 7.85 22.44 7.75 22.43 7.65 22.41 7.56 22.4 7.46 22.39 7.36 22.37 7.26 22.36 7.16 22.35 7.06 22.33 6.97 22.32 6.87 22.31 6.77 22.29 6.68 22.28 6.58 22.27 6.48 22.25 6.39 22.24 6.29 22.22 6.19 22.2 6.1 22.18 6 22.17 5.9 22.15 5.81 22.13 5.71 22.11 5.61 22.09 5.52 22.07 5.42 22.05 5.32 22.03 5.23 22.01 5.13L21.98 4.99 21.95 4.85 21.92 4.71 21.89 4.57 21.86 4.42 21.83 4.28 21.8 4.14 21.77 4 21.74 3.86 21.71 3.72 21.68 3.58 21.64 3.44 21.61 3.3 21.57 3.16 21.53 3.02 21.49 2.88 21.45 2.74 21.41 2.6 21.37 2.46 21.33 2.32 21.29 2.18 21.25 2.04 21.21 1.9 21.17 1.76 21.13 1.62 21.09 1.48 21.05 1.34 21.01 1.2 20.97 1.06 20.93 0.92 20.84 0.63 20.75 0.34ZM24.87 6.4L24.87 6.6 25.04 6.6 25.04 6.4 24.87 6.4ZM41.49 39.33L41.38 39.34 41.27 39.35 41.17 39.38 41.08 39.41 41 39.45 40.94 39.5 40.89 39.55 40.86 39.61 40.85 39.67 40.85 49.38 40.85 49.4 40.86 49.46 40.89 49.52 40.94 49.57 41 49.62 41.08 49.66 41.17 49.69 41.27 49.71 41.38 49.73 41.49 49.73 41.49 39.33Z"/></svg>