<svg id="svg2985" width="58.65" height="75.21" xmlns:svg="http://www.w3.org/2000/svg" version="1.1"
	 xmlns="http://www.w3.org/2000/svg">
	<metadata id="metadata2991"/>
	<defs id="defs2989"/>
	<path id="rect4014-5-8"
		  d="M29.33 0.17A29.33 29.33 0 0 0 0.01 29.49 29.33 29.33 0 0 0 28.65 58.78l0.35 8.86 0.06 0.41c-0.01 0.04-0.03 0.07-0.04 0.11 -0.05-0.03-0.11-0.05-0.17-0.05 -0.37 0-0.68 0.6-0.68 1.35 0 0.75 0.3 1.35 0.68 1.35 0.02 0 0.04 0 0.07-0.01 0.15 1.5 0.53 2.92 0.8 2.93 0.26 0.04 0.66-2.4 0.68-4.28l0.62 0 0 0.02 0.01-0.02 0.05 0 0-0.11 0.25-0.58 0.03-5.59 -0.31 0.71 -0.03 5.01 -0.64 0c-0.03-0.47-0.08-0.89-0.18-1.16l0.02-0.1 0.35-8.86A29.33 29.33 0 0 0 58.66 29.49 29.33 29.33 0 0 0 29.33 0.17ZM31.36 69.08L31.03 69.78 30.92 75.37 31.24 74.67 31.36 69.08Z"/>
</svg>