<svg id="svg2985" width="54.56" height="75.2" xmlns:svg="http://www.w3.org/2000/svg" version="1.1"
	 xmlns="http://www.w3.org/2000/svg">
	<metadata id="metadata2991"/>
	<defs id="defs2989"/>
	<path id="path4198"
		  d="m11.55-0.02l-1.57 1.07 0.65 2.05 -0.01 0.02 12.15 17.81 0 0.29c-0.14 0.38 0.03 0.65-0.67 1.26l0-1.13c0-0.19-0.15-0.33-0.34-0.33l-0.33 0c-0.19 0-0.33 0.15-0.33 0.33l0 2.34c0 0.19 0.15 0.34 0.33 0.34l0.33 0c0.19 0 0.34-0.15 0.34-0.34l0-0.04 0.44 0.44 0.02 5.53 -1.7 0.04 -18.69 12.85 -0.02 0 -2.05 0.65 1.07 1.57 2.07-0.64 19.33-13.19 0.01 2.15c-0.16 3.65 1.88 6.15 3.33 8.92l0.98 25.1 0.07 0.44c-0.01 0.04-0.03 0.07-0.05 0.12 -0.06-0.03-0.12-0.05-0.18-0.05 -0.39 0-0.71 0.64-0.71 1.42 0 0.78 0.32 1.42 0.71 1.42 0.02 0 0.05 0 0.07-0.01 0.16 1.58 0.56 3.07 0.84 3.08 0.28 0.04 0.7-2.53 0.71-4.5l0.65 0 0 0.02 0.01-0.02 0.03 0 -0.13 6.21 0.29-0.63 0.13-6.45 -0.01 0.01 0.04-5.76 -0.33 0.75 -0.03 5.27 -0.67 0c-0.02-0.52-0.09-0.95-0.2-1.24l0.01-0.1 0.98-25.1c0.47-0.29 1.72-2.66 2.56-5.4l10.88 15.82 -0.01 0.02 0.65 2.05 1.57-1.07 -0.66-2.06 0.02-0.01L32.32 33.97c0.05-0.32 0.12-0.63 0.15-0.94l0.02-8.23 1.41-0.03 18.68-12.84 2.08-0.65 -1.07-1.57 -2.05 0.65 -0.02-0.01 -17.79 12.13 0-1.14c0-0.19-0.15-0.33-0.34-0.33l-0.33 0c-0.19 0-0.34 0.15-0.34 0.33l0 1.02c-0.67-0.59-0.32-0.77-0.46-1.15l0-5.59c-0.34-4.15-0.87-8.08-4.69-7.99 -0.04 0-0.07 0-0.11 0 -3.82-0.08-4.35 3.84-4.69 7.99l0 1.82 -10.57-15.38 0 0Z"/>
</svg>