<svg id="svg4156" viewBox="0 0 36.85 45.65" width="36.85" height="45.65" xmlns:svg="http://www.w3.org/2000/svg"
	 version="1.1" xmlns="http://www.w3.org/2000/svg">
	<metadata id="metadata4162"/>
	<defs id="defs4160"/>
	<path id="path4166"
		  d="m18.38 0.05l-0.05 1.36 -0.13 0.06 0.03 0.82c-1.35 0.98-1.43 4.31-1.64 6.54l-0.15 8.94 -1.44-0.01c-0.39 0.6-0.22 1.61-0.22 2.5l-14.64 7.78 -0.08 3.02 0.46 0.46 15.35-1.68 0.57 1.07 0.19 5.92c-1.09 0.84-0.95 1.84-0.92 2.83l-6.19 4.16 -0.04 1.34 0.38 0.46 7.68-1.79 0.8-0.04 0.11 1.09 0.05-1.05 0.84 0 7.41 1.76 0.61-0.31 0-1.49 -6.13-4.1c-0.02-1.01 0.08-2.12-0.9-2.8l0.08-5.89c0.15-0.37 0.31-0.75 0.46-1.15l15.51 1.66 0.44-0.43 -0.04-2.93 -14.71-7.9c-0.06-0.87 0.27-2.08-0.18-2.46l-1.43-0.01 -0.23-8.95c-0.09-2.2-0.33-5.67-1.49-6.43l-0.04-0.87 -0.12-0.09 -0.02-1.35Z"/>
</svg>